<?xml version="1.0" encoding="UTF-8" standalone="no"?>
<!-- Created with Inkscape (http://www.inkscape.org/) -->

<svg
   width="210mm"
   height="297mm"
   viewBox="0 0 210 297"
   version="1.1"
   id="svg5"
   xml:space="preserve"
   inkscape:version="1.2.2 (732a01da63, 2022-12-09)"
   xmlns:inkscape="http://www.inkscape.org/namespaces/inkscape"
   xmlns:sodipodi="http://sodipodi.sourceforge.net/DTD/sodipodi-0.dtd"
   xmlns="http://www.w3.org/2000/svg"
   xmlns:svg="http://www.w3.org/2000/svg"><sodipodi:namedview
     id="namedview7"
     pagecolor="#505050"
     bordercolor="#ffffff"
     borderopacity="1"
     inkscape:showpageshadow="0"
     inkscape:pageopacity="0"
     inkscape:pagecheckerboard="1"
     inkscape:deskcolor="#505050"
     inkscape:document-units="mm"
     showgrid="false"
     inkscape:zoom="2.1785713"
     inkscape:cx="396.81969"
     inkscape:cy="561.14757"
     inkscape:window-width="1920"
     inkscape:window-height="1051"
     inkscape:window-x="-9"
     inkscape:window-y="-9"
     inkscape:window-maximized="1"
     inkscape:current-layer="layer1" /><defs
     id="defs2" /><g
     inkscape:label="Layer 1"
     inkscape:groupmode="layer"
     id="layer1"><path
       style="fill:black;stroke-width:0.132291"
       d="m 140.85104,148.63229 v -24.87083 h 24.67239 24.67241 v 24.87083 24.87084 H 165.52343 140.85104 Z M 19.804165,148.36771 v -24.87084 h 24.6724 24.6724 v 24.87084 24.87083 h -24.6724 -24.6724 z m 48.28646,0 v -23.8125 h -23.61406 -23.61406 v 23.8125 23.8125 h 23.61406 23.61406 z m 12.03854,17.79323 v -6.94532 h 6.94532 6.94531 v 6.94532 6.94531 h -6.94531 -6.94532 z m 11.90625,0 V 161.2 h -4.96093 -4.96094 v 4.96094 4.96094 h 4.96094 4.96093 z m -7.9375,0 v -2.97657 h 2.97657 2.97656 v 2.97657 2.97656 h -2.97656 -2.97657 z m 11.90625,1.98437 v -4.96094 h 0.99219 0.99219 v 0.99219 0.99219 h 0.99219 0.99218 v -0.99219 -0.99219 h 0.992185 0.99219 v 1.98438 1.98438 h 1.98437 1.98437 v -0.99219 -0.99219 h -0.99218 -0.99219 V 163.18437 161.2 h 0.99219 0.99218 v 0.99219 0.99218 h 0.99219 0.99219 v 1.98438 1.98438 h 0.99219 0.99218 v -1.98438 -1.98438 h 0.99219 0.99219 v -2.97656 -2.97656 h -1.98438 -1.98437 v 0.99219 0.99218 h 0.99219 0.99218 v 0.99219 0.99219 h -0.99218 -0.99219 v -0.99219 -0.99219 h -1.98438 -1.98437 v -0.99218 -0.99219 h -1.98437 -1.984375 v -2.97656 -2.97657 h 2.976555 2.97656 v 0.99219 0.99219 h -0.99218 -0.99219 v 1.98437 1.98438 h 0.99219 0.99218 v -0.99219 -0.99219 h 2.97657 2.97656 v -0.99218 -0.99219 h -0.99219 -0.99219 v -0.99219 -0.99219 h -0.99218 -0.99219 v -0.99218 -0.99219 h -1.98437 -1.98438 v -1.98438 -1.98437 h 0.99219 0.99218 v -0.99219 -0.99219 h -0.99218 -0.99219 v -0.99218 -0.99219 h -0.99219 -0.99217 v 1.98437 1.98438 h -0.99219 -0.992195 v -1.98438 -1.98437 h -0.99218 -0.99219 v 1.98437 1.98438 h -4.96094 -4.96094 v 0.99219 0.99218 h 0.99219 0.99219 v 0.99219 0.99219 h -1.98438 -1.98437 v 0.99219 0.99218 h -1.98438 -1.98437 v 2.97657 2.97656 h -0.99219 -0.99219 v -4.96094 -4.96094 h 1.98438 1.98437 v 0.99219 0.99219 h 0.99219 0.99219 v -1.98438 -1.98437 h -0.99219 -0.99219 v -0.99219 -0.99219 h -0.99218 -0.99219 v 0.99219 0.99219 h -0.99219 -0.99219 v -0.99219 -0.99219 h 0.99219 0.99219 v -0.99218 -0.99219 h -0.99219 -0.99219 v -0.99219 -0.99219 h 4.96094 4.96094 v 0.99219 0.99219 h 0.99219 0.99218 v -0.99219 -0.99219 h 2.97657 2.97656 v -0.99218 -0.99219 h -0.99219 -0.99219 v -1.98438 -1.98437 h 0.99219 0.99219 v -0.99219 -0.99219 h -0.99219 -0.99219 V 130.44219 129.45 h 2.97657 2.976565 v 0.99219 0.99218 h -0.99219 -0.992195 v 1.98438 1.98437 h 0.992195 0.99219 v -0.99218 -0.99219 h 1.98437 1.98437 v 1.98437 1.98438 h -0.99218 -0.99219 v 1.98437 1.98438 h 0.99219 0.99218 v -0.99219 -0.99219 h 0.99219 0.99219 v -3.96875 -3.96875 h -1.98438 -1.98437 V 129.45 127.46562 h 0.99219 0.99218 v 0.99219 0.99219 h 1.98437 1.98438 v -0.99219 -0.99219 h -0.99218 -0.99219 v -0.99218 -0.99219 h 1.98437 1.98438 v -0.99219 -0.99219 h 0.99219 0.99218 v 2.97657 2.97656 h -0.99218 -0.99219 v 0.99219 0.99218 h 0.99219 0.99218 v 0.99219 0.99219 h -0.99218 -0.99219 v 0.99219 0.99218 h 0.99219 0.99218 v 1.98438 1.98437 h 0.99218 0.99219 v 1.98438 1.98437 h 0.99219 0.99218 v -1.98437 -1.98438 h 0.99219 0.99219 v 1.98438 1.98437 h 1.98437 1.98438 v 0.99219 0.99219 h -2.97656 -2.97657 v 1.98437 1.98438 h 0.99219 0.99219 v -0.99219 -0.99219 h 0.99219 0.99218 v 0.99219 0.99219 h 0.99219 0.99219 v -0.99219 -0.99219 h 1.98437 1.98438 v -0.99218 -0.99219 h -0.99219 -0.99219 v -2.97656 -2.97657 h 0.99219 0.99219 v 1.98438 1.98437 h 0.99219 0.99218 v 2.97657 2.97656 h -0.99218 -0.99219 v 0.99219 0.99218 h 0.99219 0.99218 v 1.98438 1.98437 h -0.99218 -0.99219 v -0.99218 -0.99219 h -0.99219 -0.99218 v -1.98438 -1.98437 h -0.99218 -0.99219 v 1.98437 1.98438 h -0.99219 -0.99219 v 1.98437 1.98438 h 0.99219 0.99219 v -0.99219 -0.99219 h 0.99219 0.99218 v 0.99219 0.99219 h -0.99218 -0.99219 v 0.99219 0.99218 h 2.97656 2.97656 v 0.99219 0.99219 h -0.99219 -0.99219 v 0.99219 0.99218 h 0.99219 0.99218 v 4.96094 4.96094 h -5.95312 -5.95313 v -1.98437 -1.98438 h 1.98438 1.98437 v -0.99219 -0.99218 h -0.99218 -0.99219 v -0.99219 -0.99219 h -0.99219 -0.99218 v 0.99219 0.99219 h -0.99218 -0.99219 v -0.99219 -0.99219 h -1.98438 -1.98437 v 1.98438 1.98437 h 1.98437 1.98438 v 0.99219 0.99219 h -1.98438 -1.98437 v -0.99219 -0.99219 h -0.99219 -0.99219 v 0.99219 0.99219 h -0.99218 -0.99219 v -0.99219 -0.99219 h -1.98438 -1.98437 v 0.99219 0.99219 h 0.99219 0.99218 v 0.99218 0.99219 h -1.98437 -1.98437 v -1.98437 -1.98438 h -0.99219 -0.992195 v 1.98438 1.98437 h -1.98437 -1.98438 z m 31.749995,0.99219 v -1.98437 h -0.99219 -0.99218 v 0.99218 0.99219 h -0.99218 -0.99219 v 0.99219 0.99219 h 1.98437 1.98438 z m -3.96875,-4.96094 v -0.99219 h 0.99219 0.99218 V 162.19219 161.2 h -0.99218 -0.99219 v -0.99219 -0.99219 h -0.99219 -0.99218 v 0.99219 0.99219 h 0.99218 0.99219 v 0.99219 0.99218 h -0.99219 -0.99218 v 0.99219 0.99219 h 0.99218 0.99219 z m -3.96875,-3.96875 v -2.97656 h -2.97656 -2.97657 v 2.97656 2.97656 h 2.97657 2.97656 z m -3.96875,0 v -0.99219 h 0.99219 0.99218 v 0.99219 0.99219 h -0.99218 -0.99219 z m 1.98438,-5.95312 v -0.99219 h -0.99218 -0.99219 v -0.99219 -0.99219 h 0.99219 0.99218 v -0.99218 -0.99219 h -0.99218 -0.99219 v 0.99219 0.99218 h -0.99219 -0.99219 v 0.99219 0.99219 h 0.99219 0.99219 v 0.99219 0.99218 h 0.99219 0.99218 z m -5.95313,-3.96875 v -0.99219 h -0.99219 -0.99218 v 0.99219 0.99218 h 0.99218 0.99219 z m 9.92188,0 v -0.99219 h -0.99218 -0.99219 v 0.99219 0.99218 h 0.99219 0.99218 z m -5.95313,-4.96094 v -1.98438 h -0.99219 -0.99218 v -1.98437 -1.98438 h -0.99218 -0.9922 v -1.98437 -1.98438 h -0.99219 -0.99218 v 1.98438 1.98437 h -0.99218 -0.99219 v 1.98438 1.98437 h 1.98437 1.98438 v 0.99219 0.99219 h -2.97656 -2.97657 v 0.99219 0.99218 h 4.96093 4.96094 z m -27.781245,-2.97656 v -0.99219 h -1.98437 -1.98438 v 0.99219 0.99218 h 1.98438 1.98437 z m 7.9375,0 v -0.99219 h -1.98437 -1.98438 v 0.99219 0.99218 h 1.98438 1.98437 z m 5.953125,-1.98438 v -0.99219 h -0.99219 -0.992185 v 0.99219 0.99219 h 0.992185 0.99219 z m -1.984375,-3.96875 v -0.99219 h -0.99218 -0.99219 v 0.99219 0.99219 h 0.99219 0.99218 z m 3.968745,0 v -0.99219 h -0.99219 -0.99217 v 0.99219 0.99219 h 0.99217 0.99219 z m 7.9375,-3.96875 v -0.99219 h -0.99219 -0.99218 v 0.99219 0.99219 h 0.99218 0.99219 z m -15.874995,26.78906 v -1.98437 h -1.98437 -1.98438 v -0.99219 -0.99219 h -0.99218 -0.99219 v 0.99219 0.99219 h -1.98438 -1.98437 v -0.99219 -0.99219 h -0.99219 -0.99219 v -0.99218 -0.99219 h 0.99219 0.99219 v 0.99219 0.99218 h 1.98437 1.98438 v -0.99218 -0.99219 h 0.99219 0.99218 v -0.99219 -0.99219 h 0.99219 0.99219 v 0.99219 0.99219 h -0.99219 -0.99219 v 0.99219 0.99218 h 1.98438 1.98437 v -0.99218 -0.99219 h 0.99219 0.99219 v 0.99219 0.99218 h -0.99219 -0.99219 v 0.99219 0.99219 h 0.99219 0.99219 v 1.98437 1.98438 h -0.99219 -0.99219 z m 3.96875,0.99219 v -0.99219 h 0.992185 0.99219 v 0.99219 0.99219 h -0.99219 -0.992185 z m -3.96875,-9.92187 v -0.99219 h -1.98437 -1.98438 v -0.99219 -0.99219 h 4.96094 4.960935 v 0.99219 0.99219 h -1.984375 -1.98437 v 0.99219 0.99218 h -0.99219 -0.99219 z m 25.796875,-9.92188 v -0.99219 h 0.99218 0.99219 v 0.99219 0.99219 h -0.99219 -0.99218 z m -41.671875,-9.92187 v -6.94532 h 6.94532 6.94531 v 6.94532 6.94531 h -6.94531 -6.94532 z m 11.90625,0 v -4.96094 h -4.96093 -4.96094 v 4.96094 4.96093 h 4.96094 4.96093 z m -7.9375,0 v -2.97657 h 2.97657 2.97656 v 2.97657 2.97656 h -2.97656 -2.97657 z m 31.749995,0 v -6.94532 h 6.94531 6.94532 v 6.94532 6.94531 h -6.94532 -6.94531 z m 11.90625,0 v -4.96094 h -4.96094 -4.96093 v 4.96094 4.96093 h 4.96093 4.96094 z m -7.9375,0 v -2.97657 h 2.97656 2.97657 v 2.97657 2.97656 h -2.97657 -2.97656 z m -23.812495,-3.96875 v -0.99219 h 0.99219 0.99219 v 0.99219 0.99218 h -0.99219 -0.99219 z m 3.96875,-0.99219 v -1.98438 h 0.992185 0.99219 v 1.98438 1.98437 h -0.99219 -0.992185 z m 3.968745,-0.99219 v -0.99219 h 0.99219 0.99218 v 0.99219 0.99219 h -0.99218 -0.99219 z"
       id="path248" /></g></svg>
