<?xml version="1.0" encoding="UTF-8" standalone="no" ?>
<!DOCTYPE svg PUBLIC "-//W3C//DTD SVG 1.1//EN" "http://www.w3.org/Graphics/SVG/1.1/DTD/svg11.dtd">
<svg xmlns="http://www.w3.org/2000/svg" xmlns:xlink="http://www.w3.org/1999/xlink" version="1.1" width="1080" height="400" viewBox="0 0 1080 400" xml:space="preserve">
<desc>Created with Fabric.js 5.2.4</desc>
<defs>
</defs>
<g transform="matrix(1 0 0 1 540 200)" id="ca4b8522-edce-40be-844c-35af6428c90c"  >
<rect style="stroke: none; stroke-width: 1; stroke-dasharray: none; stroke-linecap: butt; stroke-dashoffset: 0; stroke-linejoin: miter; stroke-miterlimit: 4; fill: rgb(255,255,255); fill-rule: nonzero; opacity: 1; visibility: hidden;" vector-effect="non-scaling-stroke"  x="-540" y="-200" rx="0" ry="0" width="1080" height="400" />
</g>
<g transform="matrix(Infinity NaN NaN Infinity 0 0)" id="2e465e98-2ad6-4d76-a949-825eb7b0a4b3"  >
</g>
<g transform="matrix(6.18 0 0 6.18 540 200)" id="path248"  >
<path style="stroke: rgb(0,0,0); stroke-width: 0; stroke-dasharray: none; stroke-linecap: butt; stroke-dashoffset: 0; stroke-linejoin: miter; stroke-miterlimit: 4; fill: rgb(0,0,0); fill-rule: nonzero; opacity: 1;" vector-effect="non-scaling-stroke"  transform=" translate(-105, -148.5)" d="M 140.85104 148.63229 L 140.85104 123.76146000000001 L 165.52343000000002 123.76146000000001 L 190.19584000000003 123.76146000000001 L 190.19584000000003 148.63229 L 190.19584000000003 173.50313 L 165.52343 173.50313 L 140.85104 173.50313 Z M 19.804165 148.36771 L 19.804165 123.49686999999999 L 44.476565 123.49686999999999 L 69.148965 123.49686999999999 L 69.148965 148.36771 L 69.148965 173.23854 L 44.47656500000001 173.23854 L 19.80416500000001 173.23854 z M 68.090625 148.36771 L 68.090625 124.55520999999999 L 44.47656500000001 124.55520999999999 L 20.86250500000001 124.55520999999999 L 20.86250500000001 148.36771 L 20.86250500000001 172.18021 L 44.47656500000001 172.18021 L 68.090625 172.18021 z M 80.129165 166.16093999999998 L 80.129165 159.21561999999997 L 87.074485 159.21561999999997 L 94.019795 159.21561999999997 L 94.019795 166.16093999999998 L 94.019795 173.10625 L 87.074485 173.10625 L 80.129165 173.10625 z M 92.035415 166.16093999999998 L 92.035415 161.2 L 87.074485 161.2 L 82.113545 161.2 L 82.113545 166.16093999999998 L 82.113545 171.12187999999998 L 87.074485 171.12187999999998 L 92.035415 171.12187999999998 z M 84.097915 166.16093999999998 L 84.097915 163.18436999999997 L 87.074485 163.18436999999997 L 90.051045 163.18436999999997 L 90.051045 166.16093999999998 L 90.051045 169.1375 L 87.074485 169.1375 L 84.097915 169.1375 z M 96.004165 168.14531 L 96.004165 163.18437 L 96.996355 163.18437 L 97.98854499999999 163.18437 L 97.98854499999999 164.17656 L 97.98854499999999 165.16875 L 98.98073499999998 165.16875 L 99.97291499999999 165.16875 L 99.97291499999999 164.17656 L 99.97291499999999 163.18437 L 100.96509999999999 163.18437 L 101.95728999999999 163.18437 L 101.95728999999999 165.16875 L 101.95728999999999 167.15312999999998 L 103.94165999999998 167.15312999999998 L 105.92602999999998 167.15312999999998 L 105.92602999999998 166.16093999999998 L 105.92602999999998 165.16875 L 104.93384999999998 165.16875 L 103.94165999999998 165.16875 L 103.94165999999998 163.18437 L 103.94165999999998 161.2 L 104.93384999999998 161.2 L 105.92602999999998 161.2 L 105.92602999999998 162.19218999999998 L 105.92602999999998 163.18436999999997 L 106.91821999999998 163.18436999999997 L 107.91040999999997 163.18436999999997 L 107.91040999999997 165.16874999999996 L 107.91040999999997 167.15312999999995 L 108.90259999999996 167.15312999999995 L 109.89477999999997 167.15312999999995 L 109.89477999999997 165.16874999999996 L 109.89477999999997 163.18436999999997 L 110.88696999999996 163.18436999999997 L 111.87915999999996 163.18436999999997 L 111.87915999999996 160.20780999999997 L 111.87915999999996 157.23124999999996 L 109.89477999999995 157.23124999999996 L 107.91040999999996 157.23124999999996 L 107.91040999999996 158.22343999999995 L 107.91040999999996 159.21561999999994 L 108.90259999999995 159.21561999999994 L 109.89477999999995 159.21561999999994 L 109.89477999999995 160.20780999999994 L 109.89477999999995 161.19999999999993 L 108.90259999999995 161.19999999999993 L 107.91040999999996 161.19999999999993 L 107.91040999999996 160.20780999999994 L 107.91040999999996 159.21561999999994 L 105.92602999999995 159.21561999999994 L 103.94165999999996 159.21561999999994 L 103.94165999999996 158.22343999999995 L 103.94165999999996 157.23124999999996 L 101.95728999999996 157.23124999999996 L 99.97291499999996 157.23124999999996 L 99.97291499999996 154.25468999999995 L 99.97291499999996 151.27811999999994 L 102.94946999999996 151.27811999999994 L 105.92602999999997 151.27811999999994 L 105.92602999999997 152.27030999999994 L 105.92602999999997 153.26249999999993 L 104.93384999999996 153.26249999999993 L 103.94165999999997 153.26249999999993 L 103.94165999999997 155.24686999999994 L 103.94165999999997 157.23124999999993 L 104.93384999999996 157.23124999999993 L 105.92602999999997 157.23124999999993 L 105.92602999999997 156.23905999999994 L 105.92602999999997 155.24686999999994 L 108.90259999999996 155.24686999999994 L 111.87915999999997 155.24686999999994 L 111.87915999999997 154.25468999999995 L 111.87915999999997 153.26249999999996 L 110.88696999999998 153.26249999999996 L 109.89477999999998 153.26249999999996 L 109.89477999999998 152.27030999999997 L 109.89477999999998 151.27811999999997 L 108.90259999999998 151.27811999999997 L 107.91040999999998 151.27811999999997 L 107.91040999999998 150.28593999999998 L 107.91040999999998 149.29375 L 105.92603999999999 149.29375 L 103.94165999999998 149.29375 L 103.94165999999998 147.30937 L 103.94165999999998 145.325 L 104.93384999999998 145.325 L 105.92602999999998 145.325 L 105.92602999999998 144.33281 L 105.92602999999998 143.34062 L 104.93384999999998 143.34062 L 103.94165999999998 143.34062 L 103.94165999999998 142.34844 L 103.94165999999998 141.35625000000002 L 102.94946999999999 141.35625000000002 L 101.95729999999999 141.35625000000002 L 101.95729999999999 143.34062000000003 L 101.95729999999999 145.32500000000002 L 100.96511 145.32500000000002 L 99.972915 145.32500000000002 L 99.972915 143.34062000000003 L 99.972915 141.35625000000002 L 98.980735 141.35625000000002 L 97.988545 141.35625000000002 L 97.988545 143.34062000000003 L 97.988545 145.32500000000002 L 93.02760500000001 145.32500000000002 L 88.06666500000001 145.32500000000002 L 88.06666500000001 146.31719 L 88.06666500000001 147.30937 L 89.05885500000001 147.30937 L 90.051045 147.30937 L 90.051045 148.30156 L 90.051045 149.29375 L 88.066665 149.29375 L 86.082295 149.29375 L 86.082295 150.28593999999998 L 86.082295 151.27811999999997 L 84.097915 151.27811999999997 L 82.113545 151.27811999999997 L 82.113545 154.25468999999998 L 82.113545 157.23125 L 81.12135500000001 157.23125 L 80.12916500000001 157.23125 L 80.12916500000001 152.27031 L 80.12916500000001 147.30937 L 82.11354500000002 147.30937 L 84.09791500000001 147.30937 L 84.09791500000001 148.30156 L 84.09791500000001 149.29375 L 85.09010500000001 149.29375 L 86.082295 149.29375 L 86.082295 147.30937 L 86.082295 145.325 L 85.09010500000001 145.325 L 84.09791500000001 145.325 L 84.09791500000001 144.33281 L 84.09791500000001 143.34062 L 83.10573500000001 143.34062 L 82.11354500000002 143.34062 L 82.11354500000002 144.33281 L 82.11354500000002 145.325 L 81.12135500000002 145.325 L 80.12916500000003 145.325 L 80.12916500000003 144.33281 L 80.12916500000003 143.34062 L 81.12135500000002 143.34062 L 82.11354500000002 143.34062 L 82.11354500000002 142.34844 L 82.11354500000002 141.35625000000002 L 81.12135500000002 141.35625000000002 L 80.12916500000003 141.35625000000002 L 80.12916500000003 140.36406000000002 L 80.12916500000003 139.37187000000003 L 85.09010500000002 139.37187000000003 L 90.05104500000002 139.37187000000003 L 90.05104500000002 140.36406000000002 L 90.05104500000002 141.35625000000002 L 91.04323500000001 141.35625000000002 L 92.03541500000001 141.35625000000002 L 92.03541500000001 140.36406000000002 L 92.03541500000001 139.37187000000003 L 95.01198500000001 139.37187000000003 L 97.98854500000002 139.37187000000003 L 97.98854500000002 138.37969000000004 L 97.98854500000002 137.38750000000005 L 96.99635500000002 137.38750000000005 L 96.00416500000003 137.38750000000005 L 96.00416500000003 135.40312000000006 L 96.00416500000003 133.41875000000005 L 96.99635500000002 133.41875000000005 L 97.98854500000002 133.41875000000005 L 97.98854500000002 132.42656000000005 L 97.98854500000002 131.43437000000006 L 96.99635500000002 131.43437000000006 L 96.00416500000003 131.43437000000006 L 96.00416500000003 130.44219 L 96.00416500000003 129.45 L 98.98073500000002 129.45 L 101.95730000000002 129.45 L 101.95730000000002 130.44218999999998 L 101.95730000000002 131.43436999999997 L 100.96511000000002 131.43436999999997 L 99.97291500000003 131.43436999999997 L 99.97291500000003 133.41874999999996 L 99.97291500000003 135.40311999999997 L 100.96511000000002 135.40311999999997 L 101.95730000000002 135.40311999999997 L 101.95730000000002 134.41093999999998 L 101.95730000000002 133.41875 L 103.94167000000002 133.41875 L 105.92604000000001 133.41875 L 105.92604000000001 135.40312 L 105.92604000000001 137.3875 L 104.93386000000001 137.3875 L 103.94167000000002 137.3875 L 103.94167000000002 139.37187 L 103.94167000000002 141.35625 L 104.93386000000001 141.35625 L 105.92604000000001 141.35625 L 105.92604000000001 140.36406 L 105.92604000000001 139.37187 L 106.91823000000001 139.37187 L 107.91042 139.37187 L 107.91042 135.40312 L 107.91042 131.43437 L 105.92604 131.43437 L 103.94167 131.43437 L 103.94167 129.45 L 103.94167 127.46562 L 104.93386 127.46562 L 105.92604 127.46562 L 105.92604 128.45781 L 105.92604 129.45 L 107.91041 129.45 L 109.89479 129.45 L 109.89479 128.45781 L 109.89479 127.46562 L 108.90261 127.46562 L 107.91042 127.46562 L 107.91042 126.47344 L 107.91042 125.48125 L 109.89479 125.48125 L 111.87917 125.48125 L 111.87917 124.48906000000001 L 111.87917 123.49687000000002 L 112.87136 123.49687000000002 L 113.86354 123.49687000000002 L 113.86354 126.47344000000001 L 113.86354 129.45000000000002 L 112.87136 129.45000000000002 L 111.87917 129.45000000000002 L 111.87917 130.44219 L 111.87917 131.43437 L 112.87136 131.43437 L 113.86354 131.43437 L 113.86354 132.42656 L 113.86354 133.41875 L 112.87136 133.41875 L 111.87917 133.41875 L 111.87917 134.41093999999998 L 111.87917 135.40311999999997 L 112.87136 135.40311999999997 L 113.86354 135.40311999999997 L 113.86354 137.38749999999996 L 113.86354 139.37186999999997 L 114.85572 139.37186999999997 L 115.84791 139.37186999999997 L 115.84791 141.35624999999996 L 115.84791 143.34061999999997 L 116.84009999999999 143.34061999999997 L 117.83228 143.34061999999997 L 117.83228 141.35624999999996 L 117.83228 139.37186999999997 L 118.82446999999999 139.37186999999997 L 119.81665999999998 139.37186999999997 L 119.81665999999998 141.35624999999996 L 119.81665999999998 143.34061999999997 L 121.80102999999998 143.34061999999997 L 123.78540999999998 143.34061999999997 L 123.78540999999998 144.33280999999997 L 123.78540999999998 145.32499999999996 L 120.80884999999998 145.32499999999996 L 117.83227999999998 145.32499999999996 L 117.83227999999998 147.30936999999997 L 117.83227999999998 149.29374999999996 L 118.82446999999998 149.29374999999996 L 119.81665999999997 149.29374999999996 L 119.81665999999997 148.30155999999997 L 119.81665999999997 147.30936999999997 L 120.80884999999996 147.30936999999997 L 121.80102999999997 147.30936999999997 L 121.80102999999997 148.30155999999997 L 121.80102999999997 149.29374999999996 L 122.79321999999996 149.29374999999996 L 123.78540999999996 149.29374999999996 L 123.78540999999996 148.30155999999997 L 123.78540999999996 147.30936999999997 L 125.76977999999995 147.30936999999997 L 127.75415999999996 147.30936999999997 L 127.75415999999996 146.31718999999998 L 127.75415999999996 145.325 L 126.76196999999996 145.325 L 125.76977999999997 145.325 L 125.76977999999997 142.34843999999998 L 125.76977999999997 139.37186999999997 L 126.76196999999996 139.37186999999997 L 127.75415999999996 139.37186999999997 L 127.75415999999996 141.35624999999996 L 127.75415999999996 143.34061999999997 L 128.74634999999995 143.34061999999997 L 129.73852999999994 143.34061999999997 L 129.73852999999994 146.31718999999998 L 129.73852999999994 149.29375 L 128.74634999999995 149.29375 L 127.75415999999996 149.29375 L 127.75415999999996 150.28593999999998 L 127.75415999999996 151.27811999999997 L 128.74634999999995 151.27811999999997 L 129.73852999999994 151.27811999999997 L 129.73852999999994 153.26249999999996 L 129.73852999999994 155.24686999999997 L 128.74634999999995 155.24686999999997 L 127.75415999999996 155.24686999999997 L 127.75415999999996 154.25468999999998 L 127.75415999999996 153.2625 L 126.76196999999996 153.2625 L 125.76978999999996 153.2625 L 125.76978999999996 151.27812 L 125.76978999999996 149.29375 L 124.77760999999995 149.29375 L 123.78541999999996 149.29375 L 123.78541999999996 151.27812 L 123.78541999999996 153.2625 L 122.79322999999997 153.2625 L 121.80103999999997 153.2625 L 121.80103999999997 155.24687 L 121.80103999999997 157.23125 L 122.79322999999997 157.23125 L 123.78541999999996 157.23125 L 123.78541999999996 156.23906 L 123.78541999999996 155.24687 L 124.77760999999995 155.24687 L 125.76978999999996 155.24687 L 125.76978999999996 156.23906 L 125.76978999999996 157.23125 L 124.77760999999995 157.23125 L 123.78541999999996 157.23125 L 123.78541999999996 158.22343999999998 L 123.78541999999996 159.21561999999997 L 126.76197999999997 159.21561999999997 L 129.73853999999997 159.21561999999997 L 129.73853999999997 160.20780999999997 L 129.73853999999997 161.19999999999996 L 128.74634999999998 161.19999999999996 L 127.75415999999998 161.19999999999996 L 127.75415999999998 162.19218999999995 L 127.75415999999998 163.18436999999994 L 128.74634999999998 163.18436999999994 L 129.73852999999997 163.18436999999994 L 129.73852999999997 168.14530999999994 L 129.73852999999997 173.10624999999993 L 123.78540999999997 173.10624999999993 L 117.83227999999997 173.10624999999993 L 117.83227999999997 171.12187999999992 L 117.83227999999997 169.13749999999993 L 119.81665999999997 169.13749999999993 L 121.80102999999997 169.13749999999993 L 121.80102999999997 168.14530999999994 L 121.80102999999997 167.15312999999995 L 120.80884999999996 167.15312999999995 L 119.81665999999997 167.15312999999995 L 119.81665999999997 166.16093999999995 L 119.81665999999997 165.16874999999996 L 118.82446999999998 165.16874999999996 L 117.83228999999997 165.16874999999996 L 117.83228999999997 166.16093999999995 L 117.83228999999997 167.15312999999995 L 116.84010999999997 167.15312999999995 L 115.84791999999997 167.15312999999995 L 115.84791999999997 166.16093999999995 L 115.84791999999997 165.16874999999996 L 113.86353999999997 165.16874999999996 L 111.87916999999997 165.16874999999996 L 111.87916999999997 167.15312999999995 L 111.87916999999997 169.13749999999996 L 113.86353999999997 169.13749999999996 L 115.84791999999997 169.13749999999996 L 115.84791999999997 170.12968999999995 L 115.84791999999997 171.12187999999995 L 113.86353999999997 171.12187999999995 L 111.87916999999997 171.12187999999995 L 111.87916999999997 170.12968999999995 L 111.87916999999997 169.13749999999996 L 110.88697999999998 169.13749999999996 L 109.89478999999999 169.13749999999996 L 109.89478999999999 170.12968999999995 L 109.89478999999999 171.12187999999995 L 108.90260999999998 171.12187999999995 L 107.91041999999999 171.12187999999995 L 107.91041999999999 170.12968999999995 L 107.91041999999999 169.13749999999996 L 105.92603999999999 169.13749999999996 L 103.94166999999999 169.13749999999996 L 103.94166999999999 170.12968999999995 L 103.94166999999999 171.12187999999995 L 104.93385999999998 171.12187999999995 L 105.92603999999999 171.12187999999995 L 105.92603999999999 172.11405999999994 L 105.92603999999999 173.10624999999993 L 103.94166999999999 173.10624999999993 L 101.95729999999999 173.10624999999993 L 101.95729999999999 171.12187999999992 L 101.95729999999999 169.13749999999993 L 100.96511 169.13749999999993 L 99.972915 169.13749999999993 L 99.972915 171.12187999999992 L 99.972915 173.10624999999993 L 97.988545 173.10624999999993 L 96.004165 173.10624999999993 z M 127.75416 169.1375 L 127.75416 167.15312999999998 L 126.76197 167.15312999999998 L 125.76979 167.15312999999998 L 125.76979 168.14530999999997 L 125.76979 169.13749999999996 L 124.77761 169.13749999999996 L 123.78542 169.13749999999996 L 123.78542 170.12968999999995 L 123.78542 171.12187999999995 L 125.76979 171.12187999999995 L 127.75417 171.12187999999995 z M 123.78541 164.17656 L 123.78541 163.18437 L 124.77759999999999 163.18437 L 125.76978 163.18437 L 125.76978 162.19219 L 125.76978 161.2 L 124.77759999999999 161.2 L 123.78541 161.2 L 123.78541 160.20781 L 123.78541 159.21562 L 122.79322 159.21562 L 121.80104 159.21562 L 121.80104 160.20781 L 121.80104 161.2 L 122.79322 161.2 L 123.78541 161.2 L 123.78541 162.19218999999998 L 123.78541 163.18436999999997 L 122.79322 163.18436999999997 L 121.80104 163.18436999999997 L 121.80104 164.17655999999997 L 121.80104 165.16874999999996 L 122.79322 165.16874999999996 L 123.78541 165.16874999999996 z M 119.81666 160.20781 L 119.81666 157.23125 L 116.84009999999999 157.23125 L 113.86353 157.23125 L 113.86353 160.20781 L 113.86353 163.18437 L 116.84009999999999 163.18437 L 119.81666 163.18437 z M 115.84791 160.20781 L 115.84791 159.21562 L 116.84009999999999 159.21562 L 117.83228 159.21562 L 117.83228 160.20781 L 117.83228 161.2 L 116.84009999999999 161.2 L 115.84791 161.2 z M 117.83229 154.25468999999998 L 117.83229 153.2625 L 116.84011 153.2625 L 115.84792 153.2625 L 115.84792 152.27031 L 115.84792 151.27812 L 116.84011 151.27812 L 117.83229 151.27812 L 117.83229 150.28594 L 117.83229 149.29375000000002 L 116.84011 149.29375000000002 L 115.84792 149.29375000000002 L 115.84792 150.28594 L 115.84792 151.27812 L 114.85573000000001 151.27812 L 113.86354000000001 151.27812 L 113.86354000000001 152.27031 L 113.86354000000001 153.2625 L 114.85573000000001 153.2625 L 115.84792 153.2625 L 115.84792 154.25468999999998 L 115.84792 155.24686999999997 L 116.84011 155.24686999999997 L 117.83229 155.24686999999997 z M 111.87916 150.28593999999998 L 111.87916 149.29375 L 110.88697 149.29375 L 109.89479 149.29375 L 109.89479 150.28593999999998 L 109.89479 151.27811999999997 L 110.88697 151.27811999999997 L 111.87916 151.27811999999997 z M 121.80104 150.28593999999998 L 121.80104 149.29375 L 120.80886 149.29375 L 119.81667 149.29375 L 119.81667 150.28593999999998 L 119.81667 151.27811999999997 L 120.80886 151.27811999999997 L 121.80104 151.27811999999997 z M 115.84791 145.325 L 115.84791 143.34062 L 114.85572 143.34062 L 113.86354 143.34062 L 113.86354 141.35625 L 113.86354 139.37187 L 112.87136 139.37187 L 111.87916 139.37187 L 111.87916 137.3875 L 111.87916 135.40312 L 110.88697 135.40312 L 109.89479 135.40312 L 109.89479 137.3875 L 109.89479 139.37187 L 108.90261 139.37187 L 107.91042 139.37187 L 107.91042 141.35625 L 107.91042 143.34062 L 109.89479 143.34062 L 111.87917 143.34062 L 111.87917 144.33281 L 111.87917 145.325 L 108.90261 145.325 L 105.92604 145.325 L 105.92604 146.31718999999998 L 105.92604 147.30936999999997 L 110.88697 147.30936999999997 L 115.84791 147.30936999999997 z M 88.066665 142.34843999999998 L 88.066665 141.35625 L 86.082295 141.35625 L 84.097915 141.35625 L 84.097915 142.34843999999998 L 84.097915 143.34061999999997 L 86.082295 143.34061999999997 L 88.066665 143.34061999999997 z M 96.004165 142.34843999999998 L 96.004165 141.35625 L 94.019795 141.35625 L 92.035415 141.35625 L 92.035415 142.34843999999998 L 92.035415 143.34061999999997 L 94.019795 143.34061999999997 L 96.004165 143.34061999999997 z M 101.95729 140.36406 L 101.95729 139.37187 L 100.9651 139.37187 L 99.972915 139.37187 L 99.972915 140.36406 L 99.972915 141.35625 L 100.9651 141.35625 L 101.95729 141.35625 z M 99.972915 136.39531 L 99.972915 135.40312 L 98.980735 135.40312 L 97.988545 135.40312 L 97.988545 136.39531 L 97.988545 137.3875 L 98.980735 137.3875 L 99.972915 137.3875 z M 103.94166 136.39531 L 103.94166 135.40312 L 102.94947 135.40312 L 101.9573 135.40312 L 101.9573 136.39531 L 101.9573 137.3875 L 102.94947 137.3875 L 103.94166 137.3875 z M 111.87916 132.42656 L 111.87916 131.43437 L 110.88697 131.43437 L 109.89479 131.43437 L 109.89479 132.42656 L 109.89479 133.41875 L 110.88697 133.41875 L 111.87916 133.41875 z M 96.004165 159.21562 L 96.004165 157.23125 L 94.019795 157.23125 L 92.035415 157.23125 L 92.035415 156.23906 L 92.035415 155.24687 L 91.043235 155.24687 L 90.051045 155.24687 L 90.051045 156.23906 L 90.051045 157.23125 L 88.066665 157.23125 L 86.082295 157.23125 L 86.082295 156.23906 L 86.082295 155.24687 L 85.09010500000001 155.24687 L 84.09791500000001 155.24687 L 84.09791500000001 154.25469 L 84.09791500000001 153.26250000000002 L 85.09010500000001 153.26250000000002 L 86.082295 153.26250000000002 L 86.082295 154.25469 L 86.082295 155.24687 L 88.066665 155.24687 L 90.051045 155.24687 L 90.051045 154.25469 L 90.051045 153.26250000000002 L 91.043235 153.26250000000002 L 92.035415 153.26250000000002 L 92.035415 152.27031000000002 L 92.035415 151.27812000000003 L 93.027605 151.27812000000003 L 94.01979499999999 151.27812000000003 L 94.01979499999999 152.27031000000002 L 94.01979499999999 153.26250000000002 L 93.027605 153.26250000000002 L 92.035415 153.26250000000002 L 92.035415 154.25469 L 92.035415 155.24687 L 94.019795 155.24687 L 96.004165 155.24687 L 96.004165 154.25469 L 96.004165 153.26250000000002 L 96.996355 153.26250000000002 L 97.98854499999999 153.26250000000002 L 97.98854499999999 154.25469 L 97.98854499999999 155.24687 L 96.996355 155.24687 L 96.004165 155.24687 L 96.004165 156.23906 L 96.004165 157.23125 L 96.996355 157.23125 L 97.98854499999999 157.23125 L 97.98854499999999 159.21562 L 97.98854499999999 161.2 L 96.996355 161.2 L 96.004165 161.2 z M 99.972915 160.20781 L 99.972915 159.21562 L 100.9651 159.21562 L 101.95729 159.21562 L 101.95729 160.20781 L 101.95729 161.2 L 100.9651 161.2 L 99.972915 161.2 z M 96.004165 150.28593999999998 L 96.004165 149.29375 L 94.019795 149.29375 L 92.035415 149.29375 L 92.035415 148.30156 L 92.035415 147.30937 L 96.996355 147.30937 L 101.95729 147.30937 L 101.95729 148.30156 L 101.95729 149.29375 L 99.972915 149.29375 L 97.988545 149.29375 L 97.988545 150.28593999999998 L 97.988545 151.27811999999997 L 96.99635500000001 151.27811999999997 L 96.00416500000001 151.27811999999997 z M 121.80104 140.36406 L 121.80104 139.37187 L 122.79322 139.37187 L 123.78541 139.37187 L 123.78541 140.36406 L 123.78541 141.35625 L 122.79322 141.35625 L 121.80104 141.35625 z M 80.129165 130.44218999999998 L 80.129165 123.49686999999999 L 87.074485 123.49686999999999 L 94.019795 123.49686999999999 L 94.019795 130.44218999999998 L 94.019795 137.3875 L 87.074485 137.3875 L 80.129165 137.3875 z M 92.035415 130.44218999999998 L 92.035415 125.48124999999999 L 87.074485 125.48124999999999 L 82.113545 125.48124999999999 L 82.113545 130.44218999999998 L 82.113545 135.40311999999997 L 87.074485 135.40311999999997 L 92.035415 135.40311999999997 z M 84.097915 130.44218999999998 L 84.097915 127.46561999999999 L 87.074485 127.46561999999999 L 90.051045 127.46561999999999 L 90.051045 130.44218999999998 L 90.051045 133.41875 L 87.074485 133.41875 L 84.097915 133.41875 z M 115.84791 130.44218999999998 L 115.84791 123.49686999999999 L 122.79322 123.49686999999999 L 129.73854 123.49686999999999 L 129.73854 130.44218999999998 L 129.73854 137.3875 L 122.79322 137.3875 L 115.84791 137.3875 z M 127.75416 130.44218999999998 L 127.75416 125.48124999999999 L 122.79322 125.48124999999999 L 117.83229 125.48124999999999 L 117.83229 130.44218999999998 L 117.83229 135.40311999999997 L 122.79322 135.40311999999997 L 127.75416 135.40311999999997 z M 119.81666 130.44218999999998 L 119.81666 127.46561999999999 L 122.79322 127.46561999999999 L 125.76979 127.46561999999999 L 125.76979 130.44218999999998 L 125.76979 133.41875 L 122.79322 133.41875 L 119.81666 133.41875 z M 96.004165 126.47343999999998 L 96.004165 125.48124999999999 L 96.996355 125.48124999999999 L 97.98854499999999 125.48124999999999 L 97.98854499999999 126.47343999999998 L 97.98854499999999 127.46561999999999 L 96.996355 127.46561999999999 L 96.004165 127.46561999999999 z M 99.972915 125.48124999999999 L 99.972915 123.49686999999999 L 100.9651 123.49686999999999 L 101.95729 123.49686999999999 L 101.95729 125.48124999999999 L 101.95729 127.46561999999999 L 100.9651 127.46561999999999 L 99.972915 127.46561999999999 z M 103.94166 124.48906 L 103.94166 123.49687 L 104.93384999999999 123.49687 L 105.92603 123.49687 L 105.92603 124.48906 L 105.92603 125.48124999999999 L 104.93384999999999 125.48124999999999 L 103.94166 125.48124999999999 z" stroke-linecap="round" />
</g>
</svg>