<svg width="40" height="40" viewBox="0 0 40 40" fill="none" xmlns="http://www.w3.org/2000/svg">
<path d="M6.12848 9.16671L15.5768 18.979M34.1667 9.46185L24.5333 18.979M6.12848 30.8334C6.71609 31.352 7.48796 31.6667 8.33333 31.6667H31.6667C32.6622 31.6667 33.5559 31.2302 34.1667 30.5382M6.12848 30.8334C5.43646 30.2226 5 29.3289 5 28.3334V11.6667C5 9.82576 6.49238 8.33337 8.33333 8.33337H31.6667C33.5076 8.33337 35 9.82576 35 11.6667V28.3334C35 29.1787 34.6853 29.9506 34.1667 30.5382M6.12848 30.8334L15.5768 18.979M15.5768 18.979L17.7257 21.2106C19.0064 22.4059 20.9938 22.4059 22.2745 21.2106L24.5333 18.979M24.5333 18.979L34.1667 30.5382" stroke="white" stroke-width="2" stroke-linecap="round" stroke-linejoin="round"/>
</svg>
